<svg width="1440" height="120" viewBox="0 0 1440 120" fill="none" xmlns="http://www.w3.org/2000/svg">
<g clip-path="url(#clip0)">
<rect width="1440" height="120" fill="#F9F9FB"/>
<g opacity="0.3" clip-path="url(#clip1)">
<path d="M1215 60L1170 -3.8147e-06L1215 59.9987V60Z" fill="#F5F5F5"/>
<path d="M1170 120L1125 60L1170 119.999V120Z" fill="#ECEBEB"/>
<path d="M135 60L90.0005 -3.8147e-06L135 60Z" fill="#F1F0F0"/>
<path d="M1395 60L1350 -3.8147e-06L1395 59.9987V60Z" fill="#F5F5F5"/>
<path d="M1350 120L1305 60L1350 119.999V120Z" fill="#FAFAFA"/>
<path d="M224.999 60L180 -3.8147e-06L224.999 60Z" fill="#F1F0F0"/>
<path d="M404.999 60L360.001 -3.8147e-06L404.999 60Z" fill="#F1F0F0"/>
<path d="M990.001 120L945 60L990.001 119.999V120Z" fill="#F1F0F0"/>
<path d="M314.999 60L270 -3.8147e-06L314.999 60Z" fill="#ECEBEB"/>
<path d="M1035 60L990 -3.8147e-06L1035 59.9987V60Z" fill="#FAFAFA"/>
<path d="M494.999 60L450.001 -3.8147e-06L494.999 60Z" fill="#F5F5F5"/>
<path d="M1440 120H1440L1440 119.998V120Z" fill="#FAFAFA"/>
<path d="M44.9992 60L0 0.00133133V-3.8147e-06L44.9992 60Z" fill="#FAFAFA"/>
<path d="M44.9992 60H0V0.00134659L44.9992 60Z" fill="#FAFAFA"/>
<path d="M135 60H44.9993L90.0004 -3.8147e-06L135 60Z" fill="#FAFAFA"/>
<path d="M224.999 60H135L180.001 -3.8147e-06L224.999 60Z" fill="#F1F0F0"/>
<path d="M314.999 60H224.999L270.001 -3.8147e-06L314.999 60Z" fill="#F1F0F0"/>
<path d="M404.999 60H314.999L360.001 -3.8147e-06L404.999 60Z" fill="#F1F0F0"/>
<path d="M494.999 60H404.999L450.001 -3.8147e-06L494.999 60Z" fill="#F5F5F5"/>
<path d="M585 60H495L540.001 -3.8147e-06L585 60Z" fill="#ECEBEB"/>
<path d="M675 60H585L630 -3.8147e-06L675 60Z" fill="#F5F5F5"/>
<path d="M765 60H675L720 -3.8147e-06L765 60Z" fill="#F1F0F0"/>
<path d="M854.998 60H765L810 -3.8147e-06L854.998 60Z" fill="#F5F5F5"/>
<path d="M945 60H854.999L900.002 -3.8147e-06L945 60Z" fill="#ECEBEB"/>
<path d="M1035 60H945L990.001 -3.8147e-06L1035 60Z" fill="#FDFCFD"/>
<path d="M1035 60H1035V59.999L1035 60Z" fill="#F1F0F0"/>
<path d="M1125 60H1035L1080 -3.8147e-06L1125 60Z" fill="#F5F5F5"/>
<path d="M1215 60H1125L1170 -3.8147e-06L1215 60Z" fill="#F5F5F5"/>
<path d="M1305 60H1215L1260 -3.8147e-06L1305 60Z" fill="#F5F5F5"/>
<path d="M1215 60H1215V59.999L1215 60Z" fill="#FAFAFA"/>
<path d="M1395 60H1305L1350 -3.8147e-06L1395 60Z" fill="#F1F0F0"/>
<path d="M1440 60H1395L1440 -3.8147e-06V60Z" fill="#FDFCFD"/>
<path d="M1395 60H1395V59.999L1395 60Z" fill="#F1F0F0"/>
<path d="M1395 60L1395 59.9987L1350 -3.8147e-06H1350H1440L1395 60Z" fill="#F1F0F0"/>
<path d="M1305 60L1260 -3.8147e-06H1350L1305 60Z" fill="#FAFAFA"/>
<path d="M1215 60L1215 59.9987L1170 -3.8147e-06H1170H1260L1215 60Z" fill="#FAFAFA"/>
<path d="M1125 60L1080 -3.8147e-06H1170L1125 60Z" fill="#FAFAFA"/>
<path d="M1035 60L1035 59.9987L990 -3.8147e-06H990.002H1080L1035 60Z" fill="#F5F5F5"/>
<path d="M945 60L900.002 -3.8147e-06H990L945 60Z" fill="#F5F5F5"/>
<path d="M854.998 60L810 -3.8147e-06H900.002L854.998 60Z" fill="#FDFCFD"/>
<path d="M765 60L720 -3.8147e-06H810L765 60Z" fill="#ECEBEB"/>
<path d="M675 60L630 -3.8147e-06H720L675 60Z" fill="#F5F5F5"/>
<path d="M585 60L540.001 -3.8147e-06H630L585 60Z" fill="#FAFAFA"/>
<path d="M494.999 60L450.001 -3.8147e-06H540.001L494.999 60Z" fill="#FDFCFD"/>
<path d="M404.999 60L360.001 -3.8147e-06H450.001L404.999 60Z" fill="#FAFAFA"/>
<path d="M314.999 60L270 -3.8147e-06H360.001L314.999 60Z" fill="#ECEBEB"/>
<path d="M224.999 60L180 -3.8147e-06H270.001L224.999 60Z" fill="#FAFAFA"/>
<path d="M135 60L90.0005 -3.8147e-06H180.001L135 60Z" fill="#F5F5F5"/>
<path d="M44.9992 60L0 -3.8147e-06H90.0004L44.9992 60Z" fill="#F1F0F0"/>
<path d="M89.9983 120H0V119.997L44.9992 60L89.9983 120Z" fill="#FAFAFA"/>
<path d="M179.999 120H89.9983L135 60L179.999 120Z" fill="#F5F5F5"/>
<path d="M269.999 120H179.999L224.999 60L269.999 120Z" fill="#F5F5F5"/>
<path d="M359.999 120H269.999L314.999 60L359.999 120Z" fill="#F1F0F0"/>
<path d="M449.999 120H359.999L404.999 60L449.999 120Z" fill="#F5F5F5"/>
<path d="M540 120H450L495 60L540 120Z" fill="#F5F5F5"/>
<path d="M629.998 120H540L585 60L629.998 120Z" fill="#ECEBEB"/>
<path d="M719.998 120H629.998L675 60L719.998 120Z" fill="#F5F5F5"/>
<path d="M810 120H719.998L765 60L810 120Z" fill="#ECEBEB"/>
<path d="M899.999 120H810L854.998 60L899.999 120Z" fill="#F1F0F0"/>
<path d="M990.001 120H899.999L945.001 60L990.001 120Z" fill="#F5F5F5"/>
<path d="M1080 120H990L1035 60L1080 120Z" fill="#FDFCFD"/>
<path d="M1170 120H1080L1125 60L1170 120Z" fill="#ECEBEB"/>
<path d="M1260 120H1170L1215 60L1260 120Z" fill="#F5F5F5"/>
<path d="M1350 120H1260L1305 60L1350 120Z" fill="#ECEBEB"/>
<path d="M1440 120H1350L1395 60L1440 120Z" fill="#F5F5F5"/>
<path d="M1440 120L1395 60H1440V119.997L1440 120Z" fill="#F5F5F5"/>
<path d="M1350 120V119.999L1305 60H1395L1350 120Z" fill="#FAFAFA"/>
<path d="M1260 120L1215 60H1305L1260 120Z" fill="#F5F5F5"/>
<path d="M1170 120V119.999L1125 60H1215L1170 120Z" fill="#FAFAFA"/>
<path d="M1080 120L1035 60H1125L1080 120Z" fill="#F5F5F5"/>
<path d="M990.001 120V119.999L945 60H1035L990.001 120Z" fill="#F5F5F5"/>
<path d="M899.999 120L854.999 60H945L899.999 120Z" fill="#FDFCFD"/>
<path d="M810 120L765 60H854.998L810 120Z" fill="#F1F0F0"/>
<path d="M719.998 120L675 60H765L719.998 120Z" fill="#ECEBEB"/>
<path d="M629.998 120L585 60H675L629.998 120Z" fill="#F1F0F0"/>
<path d="M540 120L495 60H585L540 120Z" fill="#F1F0F0"/>
<path d="M449.999 120L404.999 60L449.999 120L404.999 60H494.999L449.999 120Z" fill="#FDFCFD"/>
<path d="M449.999 120L404.999 60L449.999 120Z" fill="#F1F1F1"/>
<path d="M359.999 120L314.999 60L359.999 120L314.999 60H404.999L359.999 120Z" fill="#F1F0F0"/>
<path d="M359.999 120L314.999 60L359.999 120Z" fill="#E9E9E9"/>
<path d="M269.999 120L224.999 60L269.999 120L224.999 60H314.999L269.999 120Z" fill="#ECEBEB"/>
<path d="M269.999 120L224.999 60L269.999 120Z" fill="#EAE9E9"/>
<path d="M179.999 120L135 60L179.999 120L135 60H224.999L179.999 120Z" fill="#ECEBEB"/>
<path d="M179.999 120L135 60L179.999 120Z" fill="#E4E3E4"/>
<path d="M89.9983 120L44.9993 60L89.9983 120L44.9993 60H135L89.9983 120Z" fill="#ECEBEB"/>
<path d="M89.9983 120L44.9993 60L89.9983 120Z" fill="#EAE9E9"/>
<path d="M0 119.997V59.9997H44.9992L0 119.997Z" fill="#ECEBEB"/>
</g>
</g>
<defs>
<clipPath id="clip0">
<rect width="1440" height="120" fill="white"/>
</clipPath>
<clipPath id="clip1">
<rect width="1441" height="120" fill="white"/>
</clipPath>
</defs>
</svg>
